# xmcd
#
# Track frame offsets: 
#        150
#        15595
#        31925
#        48646
#        67266
#        79148
#        92306
#        107637
#        121126
#        138560
#        151244
#        164364
#
# Disc length: 2478 seconds
#
# Revision: 1
# Processed by: cddbd v1.5.2PL0 Copyright (c) Steve Scherf et al.
# Submitted via: ExactAudioCopyFreeDBPlugin 1.0
#
DISCID=9409ac0c
DTITLE=Calibro 35 - Traditori Di Tutti
DYEAR=2013
DGENRE=Alternative Rock Italiano
TTITLE0=Prologue
TTITLE1=Giulia Mon Amour
TTITLE2=Stainless Steel
TTITLE3=One Hundred Guests
TTITLE4=Mescaline 6
TTITLE5=The Butcher's Bride
TTITLE6=Vendetta
TTITLE7=You Filthy Bastards!
TTITLE8=Traitors
TTITLE9=Two Pills In The Pocket
TTITLE10=Miss Livia Ussaro
TTITLE11=Annoying Repetitions
EXTD=
EXTT0=
EXTT1=
EXTT2=
EXTT3=
EXTT4=
EXTT5=
EXTT6=
EXTT7=
EXTT8=
EXTT9=
EXTT10=
EXTT11=
PLAYORDER=
